HIERARCHY
ROOT Hips
{
	OFFSET 0.00000 0.00000 0.00000
	CHANNELS 6 Xposition Yposition Zposition Zrotation Yrotation Xrotation 
	JOINT LHipJoint
	{
		OFFSET 0 0 0
		CHANNELS 3 Zrotation Yrotation Xrotation
		JOINT LeftUpLeg
		{
			OFFSET 1.61328 -1.70571 0.84375
			CHANNELS 3 Zrotation Yrotation Xrotation
			JOINT LeftLeg
			{
				OFFSET 2.32400 -6.38513 0.00000
				CHANNELS 3 Zrotation Yrotation Xrotation
				JOINT LeftFoot
				{
					OFFSET 2.58843 -7.11166 0.00000
					CHANNELS 3 Zrotation Yrotation Xrotation
					JOINT LeftToeBase
					{
						OFFSET 0.17200 -0.47257 2.47970
						CHANNELS 3 Zrotation Yrotation Xrotation
						End Site
						{
							OFFSET 0.00000 -0.00000 1.26912
						}
					}
				}
			}
		}
	}
	JOINT RHipJoint
	{
		OFFSET 0 0 0
		CHANNELS 3 Zrotation Yrotation Xrotation
		JOINT RightUpLeg
		{
			OFFSET -1.49930 -1.70570 0.84375
			CHANNELS 3 Zrotation Yrotation Xrotation
			JOINT RightLeg
			{
				OFFSET -2.30458 -6.33178 0.00000
				CHANNELS 3 Zrotation Yrotation Xrotation
				JOINT RightFoot
				{
					OFFSET -2.62261 -7.20556 0.00000
					CHANNELS 3 Zrotation Yrotation Xrotation
					JOINT RightToeBase
					{
						OFFSET -0.18709 -0.51403 2.51340
						CHANNELS 3 Zrotation Yrotation Xrotation
						End Site
						{
							OFFSET -0.00000 -0.00000 1.28858
						}
					}
				}
			}
		}
	}
	JOINT LowerBack
	{
		OFFSET 0 0 0
		CHANNELS 3 Zrotation Yrotation Xrotation
		JOINT Spine
		{
			OFFSET -0.03798 2.19274 -0.19881
			CHANNELS 3 Zrotation Yrotation Xrotation
			JOINT Spine1
			{
				OFFSET -0.00024 2.19460 0.05248
				CHANNELS 3 Zrotation Yrotation Xrotation
				JOINT Neck
				{
					OFFSET 0 0 0
					CHANNELS 3 Zrotation Yrotation Xrotation
					JOINT Neck1
					{
						OFFSET -0.00746 1.82323 0.17286
						CHANNELS 3 Zrotation Yrotation Xrotation
						JOINT Head
						{
							OFFSET 0.11826 1.82121 -0.27841
							CHANNELS 3 Zrotation Yrotation Xrotation
							End Site
							{
								OFFSET 0.03496 1.85543 -0.11495
							}
						}
					}
				}
				JOINT LeftShoulder
				{
					OFFSET 0 0 0
					CHANNELS 3 Zrotation Yrotation Xrotation
					JOINT LeftArm
					{
						OFFSET 3.71926 0.78840 0.25473
						CHANNELS 3 Zrotation Yrotation Xrotation
						JOINT LeftForeArm
						{
							OFFSET 5.37587 -0.00000 0.00000
							CHANNELS 3 Zrotation Yrotation Xrotation
							JOINT LeftHand
							{
								OFFSET 3.35977 -0.00000 0.00000
								CHANNELS 3 Zrotation Yrotation Xrotation
								JOINT LeftFingerBase
								{
									OFFSET 0 0 0
									CHANNELS 3 Zrotation Yrotation Xrotation
									JOINT LeftHandIndex1
									{
										OFFSET 0.56186 -0.00000 0.00000
										CHANNELS 3 Zrotation Yrotation Xrotation
										End Site
										{
											OFFSET 0.45299 -0.00000 0.00000
										}
									}
								}
								JOINT LThumb
								{
									OFFSET 0 0 0
									CHANNELS 3 Zrotation Yrotation Xrotation
									End Site
									{
										OFFSET 0.45990 -0.00000 0.45990
									}
								}
							}
						}
					}
				}
				JOINT RightShoulder
				{
					OFFSET 0 0 0
					CHANNELS 3 Zrotation Yrotation Xrotation
					JOINT RightArm
					{
						OFFSET -3.65136 0.56074 0.01624
						CHANNELS 3 Zrotation Yrotation Xrotation
						JOINT RightForeArm
						{
							OFFSET -5.22819 -0.00000 0.00000
							CHANNELS 3 Zrotation Yrotation Xrotation
							JOINT RightHand
							{
								OFFSET -3.40764 -0.00000 0.00000
								CHANNELS 3 Zrotation Yrotation Xrotation
								JOINT RightFingerBase
								{
									OFFSET 0 0 0
									CHANNELS 3 Zrotation Yrotation Xrotation
									JOINT RightHandIndex1
									{
										OFFSET -0.58325 -0.00000 0.00000
										CHANNELS 3 Zrotation Yrotation Xrotation
										End Site
										{
											OFFSET -0.47024 -0.00000 0.00000
										}
									}
								}
								JOINT RThumb
								{
									OFFSET 0 0 0
									CHANNELS 3 Zrotation Yrotation Xrotation
									End Site
									{
										OFFSET -0.47742 -0.00000 0.47742
									}
								}
							}
						}
					}
				}
			}
		}
	}
}
MOTION
Frames: 16
Frame Time: .0083333
47.2555 16.6174 -7.6508 0 0 0 0 0 0 -21 0 0 0 0 0 0 0 0 0 0 0 0 0 0 21 0 0 0 0 0 0 0 0 0 0 0 0 0 0 0 0 0 0 0 0 0 0 -16 0 0 21 0 0 11 0 0 0 -8 0 0 0 0 0 0 0 0 0 0 0 0 0 0 0 0 0 0 0 0 8 0 0 0 0 0 0 0 0 0 0 0 0 0 0 0 0 0
47.2555 16.6174 -7.6508 -11.4941 -83.8930 12.5877 0.0000 0.0000 0.0000 -17.6394 -0.2475 -5.2854 1.7330 8.2863 23.5872 0.9711 2.3476 -19.6016 0.1138 -2.1749 -5.9893 0.0000 0.0000 0.0000 21.3663 5.3689 -8.4104 -3.4204 -11.3463 33.4568 -2.1013 1.9841 -26.8911 -0.5783 -4.8695 13.5366 -0.7351 0.1388 -4.5395 0.4477 0.1982 3.1452 0.8958 0.0519 5.8075 -0.1475 0.2309 -10.1144 7.0298 -0.5162 9.0081 2.1544 0.1254 4.3771 0.0000 0.0000 0.0000 -87.8029 -1.8683 30.1296 15.0680 -24.2408 -3.2538 -0.0000 0.0000 -8.7426 17.5100 16.8816 5.2347 -7.1250 0.0000 -0.0000 -9.9184 47.3836 -0.5889 0.0000 0.0000 0.0000 88.6087 -2.2084 22.5225 -15.1194 24.3121 -3.2749 0.0000 -0.0000 -2.5141 -24.5028 4.2813 -1.9488 7.1250 -0.0000 -0.0000 1.6123 -25.2764 0.7698
47.2564 16.6170 -7.6504 -11.4080 -83.9130 12.4899 0.0000 0.0000 0.0000 -17.6527 -0.2105 -5.2826 1.7318 8.2836 23.5788 0.9726 2.3203 -19.6026 0.1121 -2.1591 -5.9457 0.0000 0.0000 0.0000 21.3481 5.3753 -8.4085 -3.4230 -11.3502 33.4703 -2.1021 2.0019 -26.8917 -0.5772 -4.8652 13.5245 -0.7555 0.1341 -4.5331 0.4563 0.1926 3.1666 0.9156 0.0477 5.8264 -0.1403 0.2231 -10.1014 6.9631 -0.5141 8.9338 2.1321 0.1214 4.3517 0.0000 -0.0000 0.0000 -87.8320 -1.9649 30.1250 14.9598 -24.0901 -3.2095 -0.0000 0.0000 -8.7640 17.5026 16.7775 5.2011 -7.1250 0.0000 -0.0000 -9.8956 47.2764 -0.5611 0.0000 -0.0000 0.0000 88.5795 -2.1578 22.5404 -15.1131 24.3034 -3.2723 0.0000 -0.0000 -2.5373 -24.5562 4.2321 -1.9312 7.1250 -0.0000 -0.0000 1.5717 -25.3284 0.7485
47.2572 16.6177 -7.6504 -11.3638 -83.9216 12.4582 0.0000 0.0000 0.0000 -17.6617 -0.2139 -5.2925 1.7310 8.2818 23.5734 0.9711 2.3330 -19.5948 0.1124 -2.1619 -5.9534 0.0000 0.0000 0.0000 21.3381 5.3728 -8.4347 -3.4239 -11.3516 33.4750 -2.1030 1.9409 -26.9134 -0.5481 -4.7428 13.1765 -0.7609 0.1302 -4.5430 0.4565 0.1881 3.1472 0.9184 0.0456 5.8117 -0.1722 0.2206 -10.0031 6.9777 -0.5082 8.8671 2.1412 0.1207 4.3148 -0.0000 -0.0000 0.0000 -87.8669 -1.8775 30.0456 14.9665 -24.0994 -3.2123 -0.0000 0.0000 -8.6968 17.4744 16.7919 5.1966 -7.1250 0.0000 -0.0000 -9.9261 47.2872 -0.5655 -0.0000 -0.0000 0.0000 88.5738 -2.2016 22.5466 -15.1236 24.3181 -3.2767 0.0000 -0.0000 -2.5525 -24.5603 4.2630 -1.9456 7.1250 -0.0000 -0.0000 1.5689 -25.2944 0.7484
47.2582 16.6179 -7.6501 -11.3605 -83.9209 12.4515 0.0000 0.0000 0.0000 -17.6651 -0.2198 -5.2904 1.7304 8.2804 23.5692 0.9697 2.3516 -19.5904 0.1143 -2.1793 -6.0015 0.0000 0.0000 0.0000 21.3347 5.3702 -8.4361 -3.4249 -11.3530 33.4798 -2.1026 1.9832 -26.9002 -0.5590 -4.7892 13.3082 -0.7693 0.1143 -4.5264 0.4661 0.1669 3.1352 0.9310 0.0347 5.7900 -0.2069 0.2316 -9.9568 6.9880 -0.4874 8.8505 2.1511 0.1291 4.3011 -0.0000 0.0000 0.0000 -87.9152 -1.9026 29.9322 14.8619 -23.9534 -3.1697 -0.0000 0.0000 -8.6382 17.5023 16.7326 5.1876 -7.1250 0.0000 -0.0000 -9.8832 47.2306 -0.5491 -0.0000 0.0000 0.0000 88.5482 -2.2077 22.5837 -15.1218 24.3155 -3.2759 0.0000 -0.0000 -2.5543 -24.5391 4.2676 -1.9458 7.1250 -0.0000 -0.0000 1.5849 -25.2901 0.7562
47.2590 16.6181 -7.6499 -11.3359 -83.9271 12.4247 0.0000 0.0000 0.0000 -17.6703 -0.2136 -5.2923 1.7300 8.2795 23.5663 0.9688 2.3587 -19.5853 0.1151 -2.1876 -6.0244 0.0000 0.0000 0.0000 21.3287 5.3706 -8.4387 -3.4254 -11.3537 33.4823 -2.1028 1.9839 -26.9007 -0.5564 -4.7779 13.2763 -0.7783 0.1064 -4.5167 0.4712 0.1567 3.1247 0.9403 0.0294 5.7735 -0.2293 0.2338 -9.8951 6.9878 -0.4773 8.8108 2.1547 0.1313 4.2783 0.0000 0.0000 0.0000 -87.9594 -1.9115 29.8263 14.7782 -23.8362 -3.1358 -0.0000 0.0000 -8.5628 17.4960 16.6779 5.1693 -7.1250 0.0000 -0.0000 -9.8736 47.1739 -0.5347 0.0000 0.0000 0.0000 88.5326 -2.2236 22.6031 -15.1252 24.3202 -3.2773 0.0000 -0.0000 -2.5643 -24.5143 4.3018 -1.9591 7.1250 -0.0000 -0.0000 1.6040 -25.2534 0.7667
47.2597 16.6182 -7.6498 -11.3358 -83.9325 12.4210 0.0000 0.0000 0.0000 -17.6723 -0.2088 -5.2939 1.7300 8.2795 23.5663 0.9681 2.3660 -19.5820 0.1159 -2.1948 -6.0442 0.0000 0.0000 0.0000 21.3266 5.3724 -8.4381 -3.4256 -11.3540 33.4834 -2.1027 1.9828 -26.9006 -0.5550 -4.7722 13.2599 -0.7847 0.0998 -4.5053 0.4758 0.1481 3.1125 0.9477 0.0250 5.7544 -0.2495 0.2364 -9.8332 6.9915 -0.4680 8.7773 2.1593 0.1335 4.2574 0.0000 -0.0000 0.0000 -88.0035 -1.9152 29.7135 14.6945 -23.7189 -3.1020 -0.0000 0.0000 -8.4752 17.4907 16.6182 5.1497 -7.1250 0.0000 -0.0000 -9.8617 47.1122 -0.5189 0.0000 -0.0000 0.0000 88.5204 -2.2447 22.6199 -15.1291 24.3257 -3.2789 0.0000 -0.0000 -2.5715 -24.4818 4.3442 -1.9754 7.1250 -0.0000 -0.0000 1.6289 -25.2081 0.7803
47.2604 16.6182 -7.6497 -11.3427 -83.9357 12.4236 0.0000 0.0000 0.0000 -17.6729 -0.2043 -5.2954 1.7301 8.2797 23.5668 0.9674 2.3710 -19.5781 0.1164 -2.1998 -6.0581 0.0000 0.0000 0.0000 21.3261 5.3742 -8.4366 -3.4258 -11.3544 33.4846 -2.1026 1.9826 -26.9002 -0.5552 -4.7730 13.2623 -0.7886 0.0943 -4.4935 0.4785 0.1409 3.1016 0.9520 0.0214 5.7363 -0.2643 0.2375 -9.7780 6.9967 -0.4621 8.7498 2.1631 0.1345 4.2395 0.0000 -0.0000 0.0000 -88.0407 -1.9152 29.6168 14.6178 -23.6110 -3.0712 -0.0000 0.0000 -8.3962 17.4822 16.5636 5.1307 -7.1250 0.0000 -0.0000 -9.8543 47.0555 -0.5046 0.0000 -0.0000 0.0000 88.5133 -2.2642 22.6325 -15.1329 24.3309 -3.2805 0.0000 -0.0000 -2.5754 -24.4611 4.3693 -1.9849 7.1250 -0.0000 -0.0000 1.6447 -25.1813 0.7889
47.2610 16.6183 -7.6496 -11.3473 -83.9379 12.4246 0.0000 0.0000 0.0000 -17.6734 -0.2015 -5.2969 1.7302 8.2799 23.5675 0.9669 2.3758 -19.5749 0.1167 -2.2024 -6.0654 0.0000 0.0000 0.0000 21.3260 5.3767 -8.4356 -3.4260 -11.3546 33.4854 -2.1026 1.9795 -26.9006 -0.5553 -4.7732 13.2629 -0.7923 0.0903 -4.4823 0.4802 0.1358 3.0904 0.9553 0.0189 5.7182 -0.2744 0.2371 -9.7253 7.0012 -0.4593 8.7253 2.1659 0.1343 4.2232 -0.0000 -0.0000 0.0000 -88.0721 -1.8997 29.5430 14.5586 -23.5276 -3.0475 -0.0000 0.0000 -8.3308 17.4721 16.5216 5.1150 -7.1250 0.0000 -0.0000 -9.8520 47.0112 -0.4936 -0.0000 -0.0000 0.0000 88.5087 -2.2868 22.6425 -15.1375 24.3374 -3.2824 0.0000 -0.0000 -2.5805 -24.4501 4.3916 -1.9940 7.1250 -0.0000 -0.0000 1.6533 -25.1574 0.7940
47.2617 16.6183 -7.6495 -11.3632 -83.9385 12.4371 0.0000 0.0000 0.0000 -17.6727 -0.2019 -5.2974 1.7303 8.2801 23.5680 0.9665 2.3803 -19.5735 0.1166 -2.2015 -6.0629 0.0000 0.0000 0.0000 21.3276 5.3797 -8.4351 -3.4261 -11.3549 33.4862 -2.1024 1.9763 -26.9004 -0.5557 -4.7750 13.2678 -0.7941 0.0867 -4.4734 0.4816 0.1310 3.0803 0.9573 0.0166 5.7026 -0.2844 0.2365 -9.6742 7.0107 -0.4575 8.7018 2.1701 0.1338 4.2074 -0.0000 0.0000 0.0000 -88.0978 -1.8721 29.4897 14.5154 -23.4667 -3.0303 -0.0000 0.0000 -8.2791 17.4645 16.5006 5.1063 -7.1250 0.0000 -0.0000 -9.8532 46.9887 -0.4881 -0.0000 0.0000 0.0000 88.5051 -2.3095 22.6541 -15.1419 24.3435 -3.2842 0.0000 -0.0000 -2.5860 -24.4505 4.4031 -1.9992 7.1250 -0.0000 -0.0000 1.6532 -25.1447 0.7944
47.2624 16.6184 -7.6493 -11.3498 -83.9383 12.4239 0.0000 0.0000 0.0000 -17.6760 -0.2085 -5.2985 1.7303 8.2801 23.5682 0.9664 2.3854 -19.5747 0.1161 -2.1965 -6.0490 0.0000 0.0000 0.0000 21.3252 5.3819 -8.4391 -3.4263 -11.3551 33.4872 -2.1020 1.9756 -26.8976 -0.5566 -4.7790 13.2792 -0.8000 0.0825 -4.4690 0.4831 0.1258 3.0721 0.9616 0.0139 5.6917 -0.2928 0.2360 -9.6336 7.0188 -0.4559 8.6822 2.1738 0.1335 4.1946 -0.0000 0.0000 0.0000 -88.1183 -1.8324 29.4661 14.4922 -23.4340 -3.0211 -0.0000 0.0000 -8.2546 17.4612 16.5010 5.1055 -7.1250 0.0000 -0.0000 -9.8564 46.9887 -0.4883 -0.0000 0.0000 0.0000 88.5001 -2.3275 22.6661 -15.1460 24.3492 -3.2859 0.0000 -0.0000 -2.5921 -24.4589 4.4018 -1.9994 7.1250 -0.0000 -0.0000 1.6467 -25.1459 0.7912
47.2632 16.6185 -7.6491 -11.3258 -83.9378 12.4019 0.0000 0.0000 0.0000 -17.6806 -0.2173 -5.3012 1.7302 8.2800 23.5678 0.9661 2.3925 -19.5759 0.1156 -2.1923 -6.0374 0.0000 0.0000 0.0000 21.3218 5.3856 -8.4446 -3.4266 -11.3555 33.4884 -2.1017 1.9752 -26.8961 -0.5579 -4.7845 13.2949 -0.8077 0.0780 -4.4666 0.4849 0.1204 3.0644 0.9673 0.0110 5.6823 -0.3002 0.2354 -9.5949 7.0258 -0.4546 8.6618 2.1769 0.1330 4.1819 0.0000 0.0000 0.0000 -88.1386 -1.7929 29.4459 14.4719 -23.4052 -3.0130 -0.0000 0.0000 -8.2310 17.4604 16.5092 5.1076 -7.1250 0.0000 -0.0000 -9.8594 46.9969 -0.4904 0.0000 0.0000 0.0000 88.4934 -2.3443 22.6798 -15.1493 24.3537 -3.2873 0.0000 -0.0000 -2.5979 -24.4578 4.4109 -2.0034 7.1250 -0.0000 -0.0000 1.6478 -25.1359 0.7921
47.2640 16.6186 -7.6489 -11.3094 -83.9385 12.3889 0.0000 0.0000 0.0000 -17.6846 -0.2244 -5.3051 1.7302 8.2798 23.5673 0.9660 2.3976 -19.5768 0.1150 -2.1868 -6.0223 0.0000 0.0000 0.0000 21.3185 5.3899 -8.4514 -3.4267 -11.3557 33.4893 -2.1012 1.9739 -26.8930 -0.5589 -4.7887 13.3067 -0.8150 0.0734 -4.4666 0.4878 0.1146 3.0585 0.9738 0.0079 5.6762 -0.3097 0.2348 -9.5656 7.0337 -0.4535 8.6463 2.1807 0.1328 4.1723 0.0000 -0.0000 0.0000 -88.1597 -1.7562 29.4271 14.4541 -23.3802 -3.0060 -0.0000 0.0000 -8.2121 17.4601 16.5218 5.1113 -7.1250 0.0000 -0.0000 -9.8632 47.0098 -0.4938 0.0000 -0.0000 0.0000 88.4843 -2.3562 22.6956 -15.1509 24.3559 -3.2879 0.0000 -0.0000 -2.6063 -24.4444 4.4322 -2.0118 7.1250 -0.0000 -0.0000 1.6581 -25.1131 0.7980
47.2649 16.6187 -7.6486 -11.2744 -83.9389 12.3583 0.0000 0.0000 0.0000 -17.6908 -0.2304 -5.3103 1.7301 8.2796 23.5667 0.9658 2.4006 -19.5770 0.1144 -2.1809 -6.0058 0.0000 0.0000 0.0000 21.3118 5.3903 -8.4604 -3.4269 -11.3559 33.4899 -2.1006 1.9722 -26.8897 -0.5586 -4.7875 13.3033 -0.8227 0.0696 -4.4677 0.4893 0.1101 3.0527 0.9793 0.0054 5.6708 -0.3215 0.2325 -9.5423 7.0474 -0.4559 8.6402 2.1865 0.1313 4.1667 -0.0000 -0.0000 0.0000 -88.1778 -1.7191 29.4150 14.4389 -23.3587 -2.9999 -0.0000 0.0000 -8.2006 17.4569 16.5329 5.1137 -7.1250 0.0000 -0.0000 -9.8692 47.0207 -0.4968 -0.0000 -0.0000 0.0000 88.4775 -2.3679 22.7060 -15.1526 24.3583 -3.2886 0.0000 -0.0000 -2.6122 -24.4209 4.4523 -2.0188 7.1250 -0.0000 -0.0000 1.6760 -25.0919 0.8074
47.2658 16.6188 -7.6483 -11.2708 -83.9404 12.3575 0.0000 0.0000 0.0000 -17.6931 -0.2323 -5.3145 1.7300 8.2794 23.5660 0.9658 2.4007 -19.5765 0.1139 -2.1761 -5.9926 0.0000 0.0000 0.0000 21.3082 5.3897 -8.4675 -3.4269 -11.3560 33.4900 -2.0999 1.9709 -26.8852 -0.5581 -4.7852 13.2969 -0.8267 0.0664 -4.4686 0.4917 0.1060 3.0483 0.9837 0.0033 5.6668 -0.3378 0.2296 -9.5283 7.0659 -0.4597 8.6441 2.1946 0.1297 4.1657 -0.0000 -0.0000 0.0000 -88.1959 -1.6821 29.4040 14.4266 -23.3412 -2.9950 -0.0000 0.0000 -8.1917 17.4568 16.5383 5.1153 -7.1250 0.0000 -0.0000 -9.8709 47.0261 -0.4982 -0.0000 -0.0000 0.0000 88.4701 -2.3776 22.7154 -15.1530 24.3588 -3.2888 0.0000 -0.0000 -2.6183 -24.3943 4.4744 -2.0262 7.1250 -0.0000 -0.0000 1.6962 -25.0687 0.8181
47.2667 16.6188 -7.6479 -11.2463 -83.9414 12.3358 0.0000 0.0000 0.0000 -17.6979 -0.2325 -5.3188 1.7298 8.2790 23.5649 0.9658 2.3987 -19.5761 0.1134 -2.1715 -5.9798 0.0000 0.0000 0.0000 21.3016 5.3863 -8.4750 -3.4269 -11.3560 33.4902 -2.0990 1.9699 -26.8798 -0.5565 -4.7787 13.2783 -0.8303 0.0639 -4.4690 0.4917 0.1030 3.0434 0.9853 0.0017 5.6619 -0.3562 0.2244 -9.5182 7.0902 -0.4677 8.6579 2.2046 0.1264 4.1687 0.0000 -0.0000 0.0000 -88.2097 -1.6443 29.3974 14.4163 -23.3267 -2.9910 -0.0000 0.0000 -8.1852 17.4541 16.5388 5.1146 -7.1250 0.0000 -0.0000 -9.8735 47.0263 -0.4984 0.0000 -0.0000 0.0000 88.4667 -2.3887 22.7197 -15.1537 24.3599 -3.2891 0.0000 -0.0000 -2.6247 -24.3751 4.4815 -2.0276 7.1250 -0.0000 -0.0000 1.7107 -25.0617 0.8253
